<svg xmlns="http://www.w3.org/2000/svg">
<defs>
<font
       id="EmbeddedFont_1"
       horiz-adv-x="2048"
       horiz-origin-x="0"
       horiz-origin-y="0"
       vert-origin-x="45"
       vert-origin-y="90"
       vert-adv-y="90"><font-face
         font-family="Liberation Sans embedded"
         units-per-em="2048"
         font-weight="normal"
         font-style="normal"
         ascent="1852"
         descent="423"
         id="font-face12" /><missing-glyph
         horiz-adv-x="2048"
         d="M 0,0 L 2047,0 2047,2047 0,2047 0,0 Z"
         id="missing-glyph14" /><glyph
         unicode="x"
         horiz-adv-x="1033"
         d="M 801,0 L 510,444 217,0 23,0 408,556 41,1082 240,1082 510,661 778,1082 979,1082 612,558 1002,0 801,0 Z"
         id="glyph16" /><glyph
         unicode="v"
         horiz-adv-x="1059"
         d="M 613,0 L 400,0 7,1082 199,1082 437,378 C 442,363 447,346 454,325 460,304 466,282 473,259 480,236 486,215 492,194 497,173 502,155 506,141 510,155 515,173 522,194 528,215 534,236 541,258 548,280 555,302 562,323 569,344 575,361 580,376 L 826,1082 1017,1082 613,0 Z"
         id="glyph18" /><glyph
         unicode="u"
         horiz-adv-x="901"
         d="M 314,1082 L 314,396 C 314,343 318,299 326,264 333,229 346,200 363,179 380,157 403,142 432,133 460,124 495,119 537,119 580,119 618,127 653,142 687,157 716,178 741,207 765,235 784,270 797,312 810,353 817,401 817,455 L 817,1082 997,1082 997,231 C 997,208 997,185 998,160 998,135 998,111 999,89 1000,66 1000,47 1001,31 1002,15 1002,5 1003,0 L 833,0 C 832,3 832,12 831,27 830,42 830,59 829,78 828,97 827,116 826,136 825,155 825,172 825,185 L 822,185 C 805,154 786,125 765,100 744,75 720,53 693,36 666,18 634,4 599,-6 564,-15 523,-20 476,-20 416,-20 364,-13 321,2 278,17 242,39 214,70 186,101 166,140 153,188 140,236 133,294 133,361 L 133,1082 314,1082 Z"
         id="glyph20" /><glyph
         unicode="t"
         horiz-adv-x="531"
         d="M 554,8 C 527,1 499,-5 471,-10 442,-14 409,-16 372,-16 228,-16 156,66 156,229 L 156,951 31,951 31,1082 163,1082 216,1324 336,1324 336,1082 536,1082 536,951 336,951 336,268 C 336,216 345,180 362,159 379,138 408,127 450,127 467,127 484,128 501,131 517,134 535,137 554,141 L 554,8 Z"
         id="glyph22" /><glyph
         unicode="r"
         horiz-adv-x="556"
         d="M 142,0 L 142,830 C 142,853 142,876 142,900 141,923 141,946 140,968 139,990 139,1011 138,1030 137,1049 137,1067 136,1082 L 306,1082 C 307,1067 308,1049 309,1030 310,1010 311,990 312,969 313,948 313,929 314,910 314,891 314,874 314,861 L 318,861 C 331,902 344,938 359,969 373,999 390,1024 409,1044 428,1063 451,1078 478,1088 505,1097 537,1102 575,1102 590,1102 604,1101 617,1099 630,1096 641,1094 648,1092 L 648,927 C 636,930 622,933 606,935 590,936 572,937 552,937 511,937 476,928 447,909 418,890 394,865 376,832 357,799 344,759 335,714 326,668 322,618 322,564 L 322,0 142,0 Z"
         id="glyph24" /><glyph
         unicode="o"
         horiz-adv-x="980"
         d="M 1053,542 C 1053,353 1011,212 928,119 845,26 724,-20 565,-20 490,-20 422,-9 363,14 304,37 254,71 213,118 172,165 140,223 119,294 97,364 86,447 86,542 86,915 248,1102 571,1102 655,1102 728,1090 789,1067 850,1044 900,1009 939,962 978,915 1006,857 1025,787 1044,717 1053,635 1053,542 Z M 864,542 C 864,626 858,695 845,750 832,805 813,848 788,881 763,914 732,937 696,950 660,963 619,969 574,969 528,969 487,962 450,949 413,935 381,912 355,879 329,846 309,802 296,747 282,692 275,624 275,542 275,458 282,389 297,334 312,279 332,235 358,202 383,169 414,146 449,133 484,120 522,113 563,113 609,113 651,120 688,133 725,146 757,168 783,201 809,234 829,278 843,333 857,388 864,458 864,542 Z"
         id="glyph26" /><glyph
         unicode="n"
         horiz-adv-x="900"
         d="M 825,0 L 825,686 C 825,739 821,783 814,818 806,853 793,882 776,904 759,925 736,941 708,950 679,959 644,963 602,963 559,963 521,956 487,941 452,926 423,904 399,876 374,847 355,812 342,771 329,729 322,681 322,627 L 322,0 142,0 142,851 C 142,874 142,898 142,923 141,948 141,971 140,994 139,1016 139,1035 138,1051 137,1067 137,1077 136,1082 L 306,1082 C 307,1079 307,1070 308,1055 309,1040 310,1024 311,1005 312,986 312,966 313,947 314,927 314,910 314,897 L 317,897 C 334,928 353,957 374,982 395,1007 419,1029 446,1047 473,1064 505,1078 540,1088 575,1097 616,1102 663,1102 723,1102 775,1095 818,1080 861,1065 897,1043 925,1012 953,981 974,942 987,894 1000,845 1006,788 1006,721 L 1006,0 825,0 Z"
         id="glyph28" /><glyph
         unicode="m"
         horiz-adv-x="1456"
         d="M 768,0 L 768,686 C 768,739 765,783 758,818 751,853 740,882 725,904 709,925 688,941 663,950 638,959 607,963 570,963 532,963 498,956 467,941 436,926 410,904 389,876 367,847 350,812 339,771 327,729 321,681 321,627 L 321,0 142,0 142,851 C 142,874 142,898 142,923 141,948 141,971 140,994 139,1016 139,1035 138,1051 137,1067 137,1077 136,1082 L 306,1082 C 307,1079 307,1070 308,1055 309,1040 310,1024 311,1005 312,986 312,966 313,947 314,927 314,910 314,897 L 317,897 C 333,928 350,957 369,982 388,1007 410,1029 435,1047 460,1064 488,1078 521,1088 553,1097 590,1102 633,1102 715,1102 780,1086 828,1053 875,1020 908,968 927,897 L 930,897 C 946,928 964,957 984,982 1004,1007 1027,1029 1054,1047 1081,1064 1111,1078 1144,1088 1177,1097 1215,1102 1258,1102 1313,1102 1360,1095 1400,1080 1439,1065 1472,1043 1497,1012 1522,981 1541,942 1553,894 1565,845 1571,788 1571,721 L 1571,0 1393,0 1393,686 C 1393,739 1390,783 1383,818 1376,853 1365,882 1350,904 1334,925 1313,941 1288,950 1263,959 1232,963 1195,963 1157,963 1123,956 1092,942 1061,927 1035,906 1014,878 992,850 975,815 964,773 952,731 946,682 946,627 L 946,0 768,0 Z"
         id="glyph30" /><glyph
         unicode="l"
         horiz-adv-x="187"
         d="M 138,0 L 138,1484 318,1484 318,0 138,0 Z"
         id="glyph32" /><glyph
         unicode="k"
         horiz-adv-x="927"
         d="M 816,0 L 450,494 318,385 318,0 138,0 138,1484 318,1484 318,557 793,1082 1004,1082 565,617 1027,0 816,0 Z"
         id="glyph34" /><glyph
         unicode="i"
         horiz-adv-x="187"
         d="M 137,1312 L 137,1484 317,1484 317,1312 137,1312 Z M 137,0 L 137,1082 317,1082 317,0 137,0 Z"
         id="glyph36" /><glyph
         unicode="h"
         horiz-adv-x="874"
         d="M 317,897 C 337,934 359,965 382,991 405,1016 431,1037 459,1054 487,1071 518,1083 551,1091 584,1098 622,1102 663,1102 732,1102 789,1093 834,1074 878,1055 913,1029 939,996 964,962 982,922 992,875 1001,828 1006,777 1006,721 L 1006,0 825,0 825,686 C 825,732 822,772 817,807 811,842 800,871 784,894 768,917 745,934 716,946 687,957 649,963 602,963 559,963 521,955 487,940 452,925 423,903 399,875 374,847 355,813 342,773 329,733 322,688 322,638 L 322,0 142,0 142,1484 322,1484 322,1098 C 322,1076 322,1054 321,1032 320,1010 320,990 319,971 318,952 317,937 316,924 315,911 315,902 314,897 L 317,897 Z"
         id="glyph38" /><glyph
         unicode="f"
         horiz-adv-x="557"
         d="M 361,951 L 361,0 181,0 181,951 29,951 29,1082 181,1082 181,1204 C 181,1243 185,1280 192,1314 199,1347 213,1377 233,1402 252,1427 279,1446 313,1461 347,1475 391,1482 445,1482 466,1482 489,1481 512,1479 535,1477 555,1474 572,1470 L 572,1333 C 561,1335 548,1337 533,1339 518,1340 504,1341 492,1341 465,1341 444,1337 427,1330 410,1323 396,1312 387,1299 377,1285 370,1268 367,1248 363,1228 361,1205 361,1179 L 361,1082 572,1082 572,951 361,951 Z"
         id="glyph40" /><glyph
         unicode="e"
         horiz-adv-x="980"
         d="M 276,503 C 276,446 282,394 294,347 305,299 323,258 348,224 372,189 403,163 441,144 479,125 525,115 578,115 656,115 719,131 766,162 813,193 844,233 861,281 L 1019,236 C 1008,206 992,176 972,146 951,115 924,88 890,64 856,39 814,19 763,4 712,-12 650,-20 578,-20 418,-20 296,28 213,123 129,218 87,360 87,548 87,649 100,735 125,806 150,876 185,933 229,977 273,1021 324,1053 383,1073 442,1092 504,1102 571,1102 662,1102 738,1087 799,1058 860,1029 909,988 946,937 983,885 1009,824 1025,754 1040,684 1048,608 1048,527 L 1048,503 276,503 Z M 862,641 C 852,755 823,838 775,891 727,943 658,969 568,969 538,969 507,964 474,955 441,945 410,928 382,903 354,878 330,845 311,803 292,760 281,706 278,641 L 862,641 Z"
         id="glyph42" /><glyph
         unicode="d"
         horiz-adv-x="954"
         d="M 821,174 C 788,105 744,55 689,25 634,-5 565,-20 484,-20 347,-20 247,26 183,118 118,210 86,349 86,536 86,913 219,1102 484,1102 566,1102 634,1087 689,1057 744,1027 788,979 821,914 L 823,914 C 823,921 823,931 823,946 822,960 822,975 822,991 821,1006 821,1021 821,1035 821,1049 821,1059 821,1065 L 821,1484 1001,1484 1001,223 C 1001,197 1001,172 1002,148 1002,124 1002,102 1003,82 1004,62 1004,45 1005,31 1006,16 1006,6 1007,0 L 835,0 C 834,7 833,16 832,29 831,41 830,55 829,71 828,87 827,104 826,122 825,139 825,157 825,174 L 821,174 Z M 275,542 C 275,467 280,403 289,350 298,297 313,253 334,219 355,184 381,159 413,143 445,127 484,119 530,119 577,119 619,127 656,142 692,157 722,182 747,217 771,251 789,296 802,351 815,406 821,474 821,554 821,631 815,696 802,749 789,802 771,844 746,877 721,910 691,933 656,948 620,962 579,969 532,969 488,969 450,961 418,946 386,931 359,906 338,872 317,838 301,794 291,740 280,685 275,619 275,542 Z"
         id="glyph44" /><glyph
         unicode="c"
         horiz-adv-x="875"
         d="M 275,546 C 275,484 280,427 289,375 298,323 313,278 334,241 355,203 384,174 419,153 454,132 497,122 548,122 612,122 666,139 709,173 752,206 778,258 788,328 L 970,328 C 964,283 951,239 931,197 911,155 884,118 850,86 815,54 773,28 724,9 675,-10 618,-20 553,-20 468,-20 396,-6 337,23 278,52 230,91 193,142 156,192 129,251 112,320 95,388 87,462 87,542 87,615 93,679 105,735 117,790 134,839 156,881 177,922 203,957 232,986 261,1014 293,1037 328,1054 362,1071 398,1083 436,1091 474,1098 512,1102 551,1102 612,1102 666,1094 713,1077 760,1060 801,1038 836,1009 870,980 898,945 919,906 940,867 955,824 964,779 L 779,765 C 770,825 746,873 708,908 670,943 616,961 546,961 495,961 452,953 418,936 383,919 355,893 334,859 313,824 298,781 289,729 280,677 275,616 275,546 Z"
         id="glyph46" /><glyph
         unicode="a"
         horiz-adv-x="1060"
         d="M 414,-20 C 305,-20 224,9 169,66 114,124 87,203 87,303 87,375 101,434 128,480 155,526 190,562 234,588 277,614 327,632 383,642 439,652 496,657 554,657 L 797,657 797,717 C 797,762 792,800 783,832 774,863 759,889 740,908 721,928 697,942 668,951 639,960 604,965 565,965 530,965 499,963 471,958 443,953 419,944 398,931 377,918 361,900 348,878 335,855 327,827 323,793 L 135,810 C 142,853 154,892 173,928 192,963 218,994 253,1020 287,1046 330,1066 382,1081 433,1095 496,1102 569,1102 705,1102 807,1071 876,1009 945,946 979,856 979,738 L 979,272 C 979,219 986,179 1000,152 1014,125 1041,111 1080,111 1090,111 1100,112 1110,113 1120,114 1130,116 1139,118 L 1139,6 C 1116,1 1094,-3 1072,-6 1049,-9 1025,-10 1000,-10 966,-10 937,-5 913,4 888,13 868,26 853,45 838,63 826,86 818,113 810,140 805,171 803,207 L 797,207 C 778,172 757,141 734,113 711,85 684,61 653,42 622,22 588,7 549,-4 510,-15 465,-20 414,-20 Z M 455,115 C 512,115 563,125 606,146 649,167 684,194 713,226 741,259 762,294 776,332 790,371 797,408 797,443 L 797,531 600,531 C 556,531 514,528 475,522 435,517 400,506 370,489 340,472 316,449 299,418 281,388 272,349 272,300 272,241 288,195 320,163 351,131 396,115 455,115 Z"
         id="glyph48" /><glyph
         unicode="T"
         horiz-adv-x="1139"
         d="M 720,1253 L 720,0 530,0 530,1253 46,1253 46,1409 1204,1409 1204,1253 720,1253 Z"
         id="glyph50" /><glyph
         unicode="S"
         horiz-adv-x="1139"
         d="M 1272,389 C 1272,330 1261,275 1238,225 1215,175 1179,132 1131,96 1083,59 1023,31 950,11 877,-10 790,-20 690,-20 515,-20 378,11 280,72 182,133 120,222 93,338 L 278,375 C 287,338 302,305 321,275 340,245 367,219 400,198 433,176 473,159 522,147 571,135 629,129 697,129 754,129 806,134 853,144 900,153 941,168 975,188 1009,208 1036,234 1055,266 1074,297 1083,335 1083,379 1083,425 1073,462 1052,491 1031,520 1001,543 963,562 925,581 880,596 827,609 774,622 716,635 652,650 613,659 573,668 534,679 494,689 456,701 420,716 383,730 349,747 317,766 285,785 257,809 234,836 211,863 192,894 179,930 166,965 159,1006 159,1053 159,1120 173,1177 200,1225 227,1272 264,1311 312,1342 360,1373 417,1395 482,1409 547,1423 618,1430 694,1430 781,1430 856,1423 918,1410 980,1396 1032,1375 1075,1348 1118,1321 1152,1287 1178,1247 1203,1206 1224,1159 1239,1106 L 1051,1073 C 1042,1107 1028,1137 1011,1164 993,1191 970,1213 941,1231 912,1249 878,1263 837,1272 796,1281 747,1286 692,1286 627,1286 572,1280 528,1269 483,1257 448,1241 421,1221 394,1201 374,1178 363,1151 351,1124 345,1094 345,1063 345,1021 356,987 377,960 398,933 426,910 462,892 498,874 540,859 587,847 634,835 685,823 738,811 781,801 825,791 868,781 911,770 952,758 991,744 1030,729 1067,712 1102,693 1136,674 1166,650 1191,622 1216,594 1236,561 1251,523 1265,485 1272,440 1272,389 Z"
         id="glyph52" /><glyph
         unicode="P"
         horiz-adv-x="1086"
         d="M 1258,985 C 1258,924 1248,867 1228,814 1207,761 1177,715 1137,676 1096,637 1046,606 985,583 924,560 854,549 773,549 L 359,549 359,0 168,0 168,1409 761,1409 C 844,1409 917,1399 979,1379 1041,1358 1093,1330 1134,1293 1175,1256 1206,1211 1227,1159 1248,1106 1258,1048 1258,985 Z M 1066,983 C 1066,1072 1039,1140 984,1187 929,1233 847,1256 738,1256 L 359,1256 359,700 746,700 C 856,700 937,724 989,773 1040,822 1066,892 1066,983 Z"
         id="glyph54" /><glyph
         unicode="O"
         horiz-adv-x="1377"
         d="M 1495,711 C 1495,601 1479,501 1448,411 1416,321 1370,244 1310,180 1250,116 1177,67 1090,32 1003,-3 905,-20 795,-20 679,-20 577,-2 490,35 403,71 330,122 272,187 214,252 170,329 141,418 112,507 97,605 97,711 97,821 112,920 143,1009 174,1098 219,1173 278,1236 337,1298 411,1346 498,1380 585,1413 684,1430 797,1430 909,1430 1009,1413 1096,1379 1183,1345 1256,1297 1315,1234 1374,1171 1418,1096 1449,1007 1480,918 1495,820 1495,711 Z M 1300,711 C 1300,796 1289,873 1268,942 1246,1011 1214,1071 1172,1120 1129,1169 1077,1207 1014,1234 951,1261 879,1274 797,1274 713,1274 639,1261 576,1234 513,1207 460,1169 418,1120 375,1071 344,1011 323,942 302,873 291,796 291,711 291,626 302,549 324,479 345,408 377,348 420,297 462,246 515,206 578,178 641,149 713,135 795,135 883,135 959,149 1023,178 1086,207 1139,247 1180,298 1221,349 1251,409 1271,480 1290,551 1300,628 1300,711 Z"
         id="glyph56" /><glyph
         unicode="L"
         horiz-adv-x="900"
         d="M 168,0 L 168,1409 359,1409 359,156 1071,156 1071,0 168,0 Z"
         id="glyph58" /><glyph
         unicode="I"
         horiz-adv-x="186"
         d="M 189,0 L 189,1409 380,1409 380,0 189,0 Z"
         id="glyph60" /><glyph
         unicode="F"
         horiz-adv-x="1006"
         d="M 359,1253 L 359,729 1145,729 1145,571 359,571 359,0 168,0 168,1409 1169,1409 1169,1253 359,1253 Z"
         id="glyph62" /><glyph
         unicode="C"
         horiz-adv-x="1297"
         d="M 792,1274 C 712,1274 641,1261 580,1234 518,1207 466,1169 425,1120 383,1071 351,1011 330,942 309,873 298,796 298,711 298,626 310,549 333,479 356,408 389,348 432,297 475,246 527,207 590,179 652,151 722,137 800,137 855,137 905,144 950,159 995,173 1035,193 1072,219 1108,245 1140,276 1169,312 1198,347 1223,387 1245,430 L 1401,352 C 1376,299 1344,250 1307,205 1270,160 1226,120 1176,87 1125,54 1068,28 1005,9 941,-10 870,-20 791,-20 677,-20 577,-2 492,35 406,71 334,122 277,187 219,252 176,329 147,418 118,507 104,605 104,711 104,821 119,920 150,1009 180,1098 224,1173 283,1236 341,1298 413,1346 498,1380 583,1413 681,1430 790,1430 940,1430 1065,1401 1166,1342 1267,1283 1341,1196 1388,1081 L 1207,1021 C 1194,1054 1176,1086 1153,1117 1130,1147 1102,1174 1068,1197 1034,1220 994,1239 949,1253 903,1267 851,1274 792,1274 Z"
         id="glyph64" /><glyph
         unicode="B"
         horiz-adv-x="1086"
         d="M 1258,397 C 1258,326 1244,265 1216,215 1188,164 1150,123 1103,92 1056,60 1001,37 938,22 875,7 809,0 740,0 L 168,0 168,1409 680,1409 C 758,1409 828,1403 889,1390 950,1377 1002,1356 1045,1328 1088,1300 1120,1265 1143,1222 1165,1179 1176,1127 1176,1067 1176,1028 1171,991 1160,956 1149,921 1132,890 1110,862 1087,833 1059,809 1026,789 992,768 953,753 908,743 965,736 1015,723 1059,704 1102,685 1139,660 1168,630 1197,600 1220,565 1235,526 1250,486 1258,443 1258,397 Z M 984,1044 C 984,1120 958,1174 906,1207 854,1240 779,1256 680,1256 L 359,1256 359,810 680,810 C 736,810 783,816 822,827 861,838 892,853 916,874 940,894 957,918 968,947 979,976 984,1008 984,1044 Z M 1065,412 C 1065,457 1057,495 1041,526 1024,557 1001,583 970,603 939,623 903,638 860,647 817,656 768,661 715,661 L 359,661 359,153 730,153 C 779,153 824,157 865,165 906,173 941,187 971,207 1000,227 1023,254 1040,287 1057,320 1065,362 1065,412 Z"
         id="glyph66" /><glyph
         unicode="A"
         horiz-adv-x="1350"
         d="M 1167,0 L 1006,412 364,412 202,0 4,0 579,1409 796,1409 1362,0 1167,0 Z M 768,1026 C 757,1053 747,1080 738,1107 728,1134 719,1159 712,1182 705,1204 699,1223 694,1238 689,1253 686,1262 685,1265 684,1262 681,1252 676,1237 671,1222 665,1203 658,1180 650,1157 641,1132 632,1105 622,1078 612,1051 602,1024 L 422,561 949,561 768,1026 Z"
         id="glyph68" /><glyph
         unicode=" "
         horiz-adv-x="556"
         id="glyph70" /></font></defs><defs
     id="defs72"><font
       id="EmbeddedFont_2"
       horiz-adv-x="2048"
       horiz-origin-x="0"
       horiz-origin-y="0"
       vert-origin-x="45"
       vert-origin-y="90"
       vert-adv-y="90"><font-face
         font-family="Liberation Sans embedded"
         units-per-em="2048"
         font-weight="bold"
         font-style="normal"
         ascent="1852"
         descent="423"
         id="font-face75" /><missing-glyph
         horiz-adv-x="2048"
         d="M 0,0 L 2047,0 2047,2047 0,2047 0,0 Z"
         id="missing-glyph77" /><glyph
         unicode="T"
         horiz-adv-x="1192"
         d="M 773,1181 L 773,0 478,0 478,1181 23,1181 23,1409 1229,1409 1229,1181 773,1181 Z"
         id="glyph79" /><glyph
         unicode="R"
         horiz-adv-x="1351"
         d="M 1105,0 L 778,535 432,535 432,0 137,0 137,1409 841,1409 C 929,1409 1006,1399 1072,1380 1137,1360 1192,1332 1236,1296 1280,1259 1313,1215 1335,1164 1356,1112 1367,1054 1367,989 1367,936 1359,888 1344,845 1328,801 1306,762 1279,728 1251,694 1218,666 1180,643 1142,620 1101,603 1056,592 L 1437,0 1105,0 Z M 1070,977 C 1070,1046 1048,1097 1003,1130 958,1163 893,1180 810,1180 L 432,1180 432,764 818,764 C 862,764 900,769 932,780 963,790 989,805 1010,824 1030,843 1045,865 1055,891 1065,917 1070,946 1070,977 Z"
         id="glyph81" /><glyph
         unicode="O"
         horiz-adv-x="1430"
         d="M 1507,711 C 1507,601 1491,501 1458,411 1425,321 1378,244 1317,180 1256,116 1181,67 1093,32 1004,-3 904,-20 793,-20 675,-20 572,-2 484,35 395,71 321,122 262,187 203,252 158,329 129,418 99,507 84,605 84,711 84,821 100,920 131,1009 162,1098 207,1173 268,1236 328,1298 402,1346 491,1380 579,1413 680,1430 795,1430 910,1430 1011,1413 1100,1379 1188,1345 1262,1297 1323,1234 1383,1171 1429,1096 1460,1008 1491,919 1507,820 1507,711 Z M 1206,711 C 1206,785 1197,852 1180,912 1162,971 1136,1022 1101,1065 1066,1108 1024,1141 973,1164 922,1187 862,1198 795,1198 726,1198 666,1187 615,1164 563,1141 520,1108 485,1065 450,1022 424,971 407,912 390,852 381,785 381,711 381,638 390,571 408,510 425,449 451,396 486,352 521,308 564,274 615,249 666,224 726,212 793,212 865,212 927,225 979,250 1031,275 1074,309 1108,354 1141,398 1166,451 1182,512 1198,573 1206,639 1206,711 Z"
         id="glyph83" /><glyph
         unicode="N"
         horiz-adv-x="1218"
         d="M 995,0 L 381,1085 C 384,1056 387,1026 390,997 393,972 395,944 397,915 398,886 399,858 399,831 L 399,0 137,0 137,1409 474,1409 1097,315 C 1094,343 1091,372 1088,403 1085,429 1083,458 1082,491 1080,524 1079,557 1079,590 L 1079,1409 1341,1409 1341,0 995,0 Z"
         id="glyph85" /><glyph
         unicode="I"
         horiz-adv-x="292"
         d="M 137,0 L 137,1409 432,1409 432,0 137,0 Z"
         id="glyph87" /><glyph
         unicode="E"
         horiz-adv-x="1139"
         d="M 137,0 L 137,1409 1245,1409 1245,1181 432,1181 432,827 1184,827 1184,599 432,599 432,228 1286,228 1286,0 137,0 Z"
         id="glyph89" /><glyph
         unicode="C"
         horiz-adv-x="1351"
         d="M 795,212 C 850,212 898,220 939,236 979,251 1014,272 1044,297 1073,322 1098,351 1118,383 1137,415 1153,447 1166,480 L 1423,383 C 1402,332 1375,283 1342,234 1309,185 1267,142 1217,105 1167,68 1108,38 1039,15 970,-8 888,-20 795,-20 673,-20 567,-2 478,35 389,71 315,122 257,187 198,252 155,329 127,418 98,507 84,605 84,711 84,821 98,920 127,1009 155,1098 198,1173 255,1236 312,1298 385,1346 473,1380 560,1413 663,1430 782,1430 874,1430 955,1420 1024,1401 1093,1382 1152,1355 1203,1320 1253,1285 1295,1243 1328,1196 1361,1148 1386,1095 1405,1038 L 1145,967 C 1136,997 1121,1026 1102,1054 1083,1081 1058,1106 1029,1127 999,1148 964,1166 924,1179 884,1192 839,1198 788,1198 717,1198 655,1187 604,1164 553,1141 511,1108 478,1065 445,1022 420,971 405,912 389,852 381,785 381,711 381,638 389,571 405,510 420,449 445,396 478,352 511,308 554,274 607,249 659,224 722,212 795,212 Z"
         id="glyph91" /><glyph
         unicode="A"
         horiz-adv-x="1297"
         d="M 1133,0 L 1008,360 471,360 346,0 51,0 565,1409 913,1409 1425,0 1133,0 Z M 803,987 C 795,1010 787,1034 780,1058 772,1081 765,1103 760,1123 754,1142 749,1158 746,1171 742,1184 740,1191 739,1192 738,1190 736,1183 733,1170 730,1157 725,1141 720,1122 714,1103 707,1081 700,1058 692,1034 684,1010 676,987 L 537,582 942,582 803,987 Z"
         id="glyph93" /></font></defs><defs
     id="defs95"><font
       id="EmbeddedFont_3"
       horiz-adv-x="2048"
       horiz-origin-x="0"
       horiz-origin-y="0"
       vert-origin-x="45"
       vert-origin-y="90"
       vert-adv-y="90"><font-face
         font-family="Liberation Serif embedded"
         units-per-em="2048"
         font-weight="normal"
         font-style="normal"
         ascent="1826"
         descent="450"
         id="font-face98" /><missing-glyph
         horiz-adv-x="2048"
         d="M 0,0 L 2047,0 2047,2047 0,2047 0,0 Z"
         id="missing-glyph100" /><glyph
         unicode="u"
         horiz-adv-x="980"
         d="M 313,268 C 313,213 326,170 351,141 376,111 416,96 473,96 510,96 549,99 589,104 629,109 668,116 705,127 L 705,870 563,895 563,940 870,940 870,70 989,45 989,0 715,0 707,76 C 688,65 665,54 638,43 611,32 584,21 555,12 526,3 496,-5 467,-11 438,-17 411,-20 387,-20 351,-20 318,-15 289,-5 260,5 235,21 214,43 193,65 176,94 165,129 153,164 147,206 147,256 L 147,870 27,895 27,940 313,940 313,268 Z"
         id="glyph102" /><glyph
         unicode="r"
         horiz-adv-x="636"
         d="M 664,965 L 664,711 621,711 563,821 C 544,821 524,820 503,817 482,814 460,811 439,807 418,802 397,797 378,791 358,785 341,779 326,772 L 326,70 487,45 487,0 41,0 41,45 160,70 160,870 41,895 41,940 315,940 324,823 C 339,836 360,850 387,867 414,883 443,898 474,913 505,928 536,940 567,950 598,960 625,965 649,965 L 664,965 Z"
         id="glyph104" /><glyph
         unicode="n"
         horiz-adv-x="1007"
         d="M 324,864 C 343,875 365,886 391,898 416,910 443,921 471,931 499,941 527,949 555,956 583,962 609,965 633,965 669,965 702,960 732,950 762,940 788,924 810,902 831,880 848,851 861,816 873,781 879,738 879,688 L 879,70 993,45 993,0 588,0 588,45 713,70 713,670 C 713,725 700,769 673,801 646,832 604,848 547,848 528,848 509,847 488,845 467,843 447,841 427,838 407,835 388,832 371,829 353,825 338,822 326,819 L 326,70 453,45 453,0 47,0 47,45 160,70 160,870 47,895 47,940 315,940 324,864 Z"
         id="glyph106" /><glyph
         unicode="m"
         horiz-adv-x="1483"
         d="M 326,864 C 345,875 367,886 393,898 418,910 445,921 472,931 499,941 527,949 555,956 583,962 609,965 633,965 679,965 722,956 761,939 800,922 829,894 848,856 869,868 895,881 925,894 955,907 986,918 1019,929 1051,940 1083,948 1115,955 1146,962 1175,965 1200,965 1236,965 1269,960 1298,950 1327,940 1353,924 1374,902 1395,880 1411,851 1423,816 1434,781 1440,738 1440,688 L 1440,70 1561,45 1561,0 1134,0 1134,45 1274,70 1274,670 C 1274,725 1262,768 1237,798 1212,827 1171,842 1114,842 1097,842 1077,841 1054,838 1031,835 1008,832 985,829 962,826 940,822 919,818 898,813 880,810 866,807 877,771 883,731 883,688 L 883,70 1024,45 1024,0 578,0 578,45 717,70 717,670 C 717,725 703,768 675,798 646,827 604,842 547,842 528,842 509,841 489,839 468,837 448,835 429,832 409,829 390,826 373,823 355,819 340,816 328,813 L 328,70 469,45 469,0 43,0 43,45 162,70 162,870 43,895 43,940 318,940 326,864 Z"
         id="glyph108" /><glyph
         unicode="e"
         horiz-adv-x="742"
         d="M 260,473 L 260,455 C 260,406 264,360 271,315 278,270 292,231 313,197 334,162 363,135 401,115 439,94 489,84 551,84 571,84 592,85 614,87 636,88 658,90 680,93 702,96 723,99 744,102 765,105 784,109 801,113 L 801,57 C 786,47 767,38 746,29 724,20 700,11 674,4 648,-3 620,-9 591,-14 562,-18 532,-20 502,-20 424,-20 358,-9 305,12 251,33 207,65 174,107 141,149 117,201 102,263 87,325 80,396 80,477 80,641 114,763 183,844 252,925 350,965 477,965 527,965 574,958 618,945 661,932 699,909 732,878 765,847 791,805 810,752 829,699 838,634 838,555 L 838,473 260,473 Z M 477,885 C 440,885 408,877 381,862 354,846 331,824 314,795 296,766 283,732 275,691 266,650 262,604 262,553 L 664,553 C 664,604 661,650 656,691 650,732 640,766 626,795 611,824 592,846 568,862 544,877 514,885 477,885 Z"
         id="glyph110" /><glyph
         unicode="b"
         horiz-adv-x="980"
         d="M 766,496 C 766,564 760,621 748,668 735,714 718,751 695,780 672,809 644,829 612,842 579,854 543,860 504,860 488,860 471,859 453,858 434,857 416,855 398,852 380,849 363,845 346,841 329,837 315,832 303,827 L 303,82 C 331,77 363,73 399,70 435,67 470,66 504,66 596,66 663,102 704,174 745,246 766,353 766,496 Z M 137,1352 L 0,1376 0,1421 303,1421 303,1085 C 303,1072 303,1058 303,1042 302,1025 302,1008 302,991 301,973 301,955 300,938 299,920 298,903 297,887 327,910 364,929 407,944 450,958 497,965 549,965 677,965 775,926 844,849 912,771 946,653 946,496 946,417 937,345 920,282 903,218 876,164 840,119 804,74 759,40 704,16 649,-8 583,-20 508,-20 476,-20 444,-18 411,-15 378,-11 345,-6 313,0 281,6 250,13 220,22 190,30 162,39 137,49 L 137,1352 Z"
         id="glyph112" /><glyph
         unicode="&gt;"
         horiz-adv-x="927"
         d="M 104,186 L 104,289 913,680 104,1071 104,1174 1057,705 1057,655 104,186 Z"
         id="glyph114" /><glyph
         unicode="&lt;"
         horiz-adv-x="927"
         d="M 102,655 L 102,705 1055,1174 1055,1071 246,680 1055,289 1055,186 102,655 Z"
         id="glyph116" /></font></defs><defs
     id="defs118"><font
       id="EmbeddedFont_4"
       horiz-adv-x="2048"
       horiz-origin-x="0"
       horiz-origin-y="0"
       vert-origin-x="45"
       vert-origin-y="90"
       vert-adv-y="90"><font-face
         font-family="Overpass embedded"
         units-per-em="2048"
         font-weight="normal"
         font-style="normal"
         ascent="1984"
         descent="609"
         id="font-face121" /><missing-glyph
         horiz-adv-x="2048"
         d="M 0,0 L 2047,0 2047,2047 0,2047 0,0 Z"
         id="missing-glyph123" /><glyph
         unicode="t"
         horiz-adv-x="636"
         d="M 457,-25 C 416,-25 380,-19 351,-7 321,6 297,23 278,46 259,69 245,96 236,129 227,161 223,197 223,236 L 223,862 61,862 61,1047 223,1047 223,1376 436,1479 436,1047 684,1047 684,862 436,862 436,291 C 436,274 438,258 441,243 444,228 449,216 457,205 464,194 475,186 488,181 501,175 518,172 539,172 590,172 641,188 694,221 L 668,23 C 639,8 607,-3 572,-12 537,-21 499,-25 457,-25 Z"
         id="glyph125" /><glyph
         unicode="s"
         horiz-adv-x="795"
         d="M 477,-25 C 436,-25 395,-21 356,-13 317,-5 280,6 246,21 211,36 180,54 152,75 124,96 101,119 82,145 L 233,274 C 244,264 257,253 272,241 287,228 305,217 325,206 345,195 367,186 392,179 417,172 444,168 473,168 500,168 524,170 547,174 570,178 589,184 606,193 622,202 635,213 644,228 653,242 657,260 657,281 657,306 649,327 632,345 615,362 592,378 565,393 538,407 507,421 472,434 437,447 402,460 367,475 334,489 302,504 271,521 240,538 212,558 188,581 163,604 144,632 129,665 114,697 106,736 106,782 106,829 116,870 135,906 154,942 180,972 213,997 246,1021 284,1039 329,1052 373,1065 420,1071 471,1071 516,1071 557,1067 595,1058 632,1049 666,1038 697,1023 727,1008 754,992 777,973 800,954 821,934 838,913 L 684,791 C 675,800 664,810 651,821 638,831 622,840 605,849 588,858 568,865 546,871 524,876 499,879 471,879 426,879 390,871 364,854 337,837 324,813 324,782 324,762 331,745 345,730 359,715 378,701 402,688 426,675 454,663 485,652 516,640 548,627 582,614 618,600 653,584 688,567 723,550 754,528 781,503 808,478 829,447 846,411 862,375 870,332 870,281 870,231 861,187 842,149 823,110 797,78 763,53 728,27 687,8 639,-6 590,-18 536,-25 477,-25 Z"
         id="glyph127" /><glyph
         unicode="r"
         horiz-adv-x="609"
         d="M 154,0 L 154,1047 367,1047 367,920 C 392,973 424,1012 463,1036 502,1059 548,1071 600,1071 669,1071 728,1050 776,1008 L 745,811 C 726,824 703,836 677,847 650,857 618,862 580,862 556,862 532,858 507,850 482,841 459,827 438,806 417,785 400,757 387,722 374,687 367,642 367,588 L 367,0 154,0 Z"
         id="glyph129" /><glyph
         unicode="o"
         horiz-adv-x="953"
         d="M 580,-25 C 507,-25 441,-13 382,12 323,37 272,73 231,120 190,167 158,224 136,292 113,359 102,436 102,522 102,608 113,685 136,753 158,821 190,879 231,926 272,973 323,1009 382,1034 441,1059 507,1071 580,1071 653,1071 719,1059 778,1034 837,1009 888,973 929,926 970,879 1002,821 1025,753 1048,685 1059,608 1059,522 1059,436 1048,359 1025,292 1002,224 970,167 929,120 888,73 837,37 778,12 719,-13 653,-25 580,-25 Z M 580,176 C 621,176 658,184 691,200 724,216 752,239 775,269 798,298 815,334 828,377 840,420 846,468 846,522 846,576 840,625 828,668 815,711 798,747 775,777 752,807 724,830 691,846 658,862 621,870 580,870 539,870 503,862 470,846 437,830 410,807 387,777 364,747 346,711 334,668 321,625 315,576 315,522 315,468 321,420 334,377 346,334 364,298 387,269 410,239 437,216 470,200 503,184 539,176 580,176 Z"
         id="glyph131" /><glyph
         unicode="n"
         horiz-adv-x="874"
         d="M 801,0 L 801,625 C 801,669 796,707 785,738 774,769 760,794 741,814 722,833 700,848 675,857 650,866 622,870 592,870 560,870 530,866 503,858 476,849 452,836 432,817 412,798 396,774 385,743 373,712 367,674 367,629 L 367,0 154,0 154,1047 367,1047 367,946 C 401,989 440,1021 484,1041 528,1061 579,1071 637,1071 692,1071 742,1063 788,1048 834,1032 874,1006 908,971 941,936 967,890 986,833 1005,776 1014,707 1014,625 L 1014,0 801,0 Z"
         id="glyph133" /><glyph
         unicode="l"
         horiz-adv-x="212"
         d="M 164,0 L 164,1378 377,1479 377,0 164,0 Z"
         id="glyph135" /><glyph
         unicode="i"
         horiz-adv-x="266"
         d="M 156,0 L 156,1047 369,1047 369,0 156,0 Z M 262,1210 C 244,1210 227,1213 212,1220 196,1227 182,1236 171,1248 159,1259 150,1273 143,1289 136,1304 133,1321 133,1339 133,1357 136,1374 143,1390 150,1405 159,1419 171,1431 182,1442 196,1451 212,1458 227,1465 244,1468 262,1468 280,1468 297,1465 313,1458 328,1451 342,1442 354,1431 365,1419 374,1405 381,1390 388,1374 391,1357 391,1339 391,1321 388,1304 381,1289 374,1273 365,1259 354,1248 342,1236 328,1227 313,1220 297,1213 280,1210 262,1210 Z"
         id="glyph137" /><glyph
         unicode="e"
         horiz-adv-x="927"
         d="M 578,-25 C 505,-25 440,-12 381,13 322,38 272,74 231,121 190,168 158,225 136,293 113,361 102,438 102,524 102,610 113,687 136,755 159,822 191,880 233,927 274,974 324,1009 383,1034 441,1059 506,1071 578,1071 640,1071 698,1061 753,1042 807,1022 855,992 896,952 937,911 969,860 993,799 1016,738 1028,665 1028,582 1028,559 1028,535 1027,510 1026,485 1023,463 1020,444 L 315,444 C 316,401 324,362 339,328 354,293 373,264 398,240 423,215 451,197 482,184 513,171 546,164 580,164 623,164 664,173 701,191 738,209 770,235 797,270 L 936,127 C 898,82 849,45 790,17 731,-11 660,-25 578,-25 Z M 578,883 C 545,883 513,878 482,869 451,859 424,844 401,823 377,802 357,774 342,740 327,706 318,665 315,616 L 815,616 C 814,665 806,706 792,740 778,774 760,802 737,823 714,844 689,859 662,869 634,878 606,883 578,883 Z"
         id="glyph139" /><glyph
         unicode="d"
         horiz-adv-x="874"
         d="M 537,-25 C 471,-25 411,-12 358,13 304,38 258,74 220,121 182,168 153,225 133,293 112,361 102,438 102,524 102,610 113,687 134,755 155,822 185,880 224,927 262,974 308,1009 361,1034 414,1059 473,1071 537,1071 594,1071 643,1062 684,1043 724,1024 757,1001 784,973 L 784,1380 997,1479 997,0 784,0 784,74 C 756,43 723,18 684,1 645,-16 596,-25 537,-25 Z M 567,176 C 615,176 657,186 694,207 731,228 761,257 784,295 L 784,756 C 776,769 765,783 752,796 739,809 723,822 705,833 686,844 666,853 643,860 620,867 594,870 567,870 487,870 425,841 381,782 337,723 315,637 315,524 315,473 321,427 333,385 344,342 361,306 383,275 404,244 431,219 462,202 493,185 528,176 567,176 Z"
         id="glyph141" /><glyph
         unicode="a"
         horiz-adv-x="875"
         d="M 956,0 L 752,0 752,90 C 739,76 723,62 704,49 685,35 664,23 641,12 617,1 590,-8 561,-15 532,-22 500,-25 465,-25 412,-25 362,-18 317,-3 272,12 232,34 199,64 166,93 140,130 121,174 102,217 92,268 92,326 92,386 103,438 126,482 149,525 179,561 216,590 253,618 296,639 345,652 393,665 443,672 494,672 542,672 588,667 633,657 677,646 717,631 752,610 L 752,668 C 752,707 748,741 739,768 730,795 716,818 698,835 679,852 656,864 628,872 600,879 567,883 528,883 463,883 406,874 359,857 311,840 268,817 229,788 L 166,963 C 187,978 212,992 239,1005 266,1018 296,1029 329,1039 362,1049 397,1057 435,1063 473,1068 514,1071 557,1071 586,1071 617,1069 648,1066 679,1063 710,1056 740,1047 769,1037 797,1023 824,1005 850,987 873,964 893,935 912,906 928,870 939,828 950,786 956,736 956,678 L 956,0 Z M 504,164 C 558,164 606,175 648,197 689,219 724,245 752,276 L 752,436 C 723,451 688,464 649,473 610,482 569,487 528,487 496,487 466,484 438,478 410,472 386,463 365,450 344,437 327,420 315,400 303,379 297,355 297,326 297,276 315,237 350,208 385,179 436,164 504,164 Z"
         id="glyph143" /><glyph
         unicode="W"
         horiz-adv-x="1589"
         d="M 1653,1434 L 1343,0 1151,0 903,930 C 893,968 885,999 880,1023 874,1046 870,1067 868,1085 866,1067 862,1046 857,1023 852,999 844,968 834,930 L 592,0 399,0 92,1434 311,1434 489,551 C 498,510 505,476 510,451 515,426 518,404 520,385 522,404 526,426 533,451 539,476 547,509 557,551 L 782,1434 961,1434 1192,553 C 1203,512 1212,479 1218,454 1223,429 1227,408 1229,389 1231,408 1234,430 1239,455 1243,480 1249,513 1257,553 L 1438,1434 1653,1434 Z"
         id="glyph145" /><glyph
         unicode="T"
         horiz-adv-x="1006"
         d="M 711,1229 L 711,0 498,0 498,1229 92,1229 92,1434 1116,1434 1116,1229 711,1229 Z"
         id="glyph147" /><glyph
         unicode="S"
         horiz-adv-x="1006"
         d="M 854,1108 C 845,1129 833,1148 818,1166 803,1183 784,1199 762,1212 740,1225 715,1235 687,1242 658,1249 627,1253 592,1253 523,1253 470,1238 431,1208 392,1178 373,1136 373,1081 373,1047 384,1018 405,995 426,971 454,950 489,932 524,914 563,898 608,883 652,868 697,851 744,834 790,816 835,796 880,773 924,750 963,722 998,689 1033,656 1061,616 1082,570 1103,523 1114,468 1114,403 1114,334 1102,274 1077,221 1052,168 1017,123 973,87 929,50 877,23 818,4 758,-15 694,-25 625,-25 561,-25 501,-17 446,-1 390,16 340,39 295,70 250,100 211,137 178,180 145,223 120,271 102,324 L 303,397 C 318,365 336,336 358,309 379,282 404,260 432,241 460,222 491,207 525,196 558,185 594,180 633,180 672,180 707,185 739,194 771,203 798,217 821,236 844,255 861,278 874,306 887,333 893,365 893,401 893,444 882,480 861,509 840,538 812,563 777,584 742,605 703,624 659,640 614,656 569,672 523,689 476,706 431,724 387,745 342,766 303,791 268,821 233,851 205,887 184,929 163,971 152,1022 152,1083 152,1134 162,1182 183,1227 203,1272 232,1312 271,1347 310,1381 357,1408 414,1428 471,1448 535,1458 608,1458 669,1458 724,1451 773,1437 822,1422 866,1402 903,1377 940,1352 970,1322 995,1287 1020,1252 1038,1215 1051,1174 L 854,1108 Z"
         id="glyph149" /><glyph
         unicode="R"
         horiz-adv-x="1060"
         d="M 184,0 L 184,1434 788,1434 C 876,1434 950,1422 1009,1398 1068,1374 1116,1342 1152,1303 1188,1263 1214,1218 1229,1167 1244,1116 1251,1064 1251,1010 1251,969 1245,927 1233,885 1221,843 1203,804 1178,767 1153,730 1120,697 1081,669 1042,640 995,619 940,604 L 1235,0 991,0 709,586 397,586 397,0 184,0 Z M 793,791 C 838,791 875,797 905,810 935,822 959,838 978,859 997,880 1010,903 1018,929 1026,955 1030,982 1030,1010 1030,1035 1027,1060 1020,1086 1013,1112 1000,1136 982,1157 964,1178 940,1196 909,1209 878,1222 840,1229 793,1229 L 397,1229 397,791 793,791 Z"
         id="glyph151" /><glyph
         unicode="O"
         horiz-adv-x="1245"
         d="M 758,-25 C 681,-25 613,-15 552,6 491,26 438,54 392,89 345,124 306,165 273,213 240,260 214,312 193,367 172,422 157,479 148,539 138,598 133,658 133,717 133,776 138,835 148,895 157,954 172,1012 193,1067 214,1122 240,1173 273,1221 306,1268 345,1310 392,1345 438,1380 491,1407 552,1428 613,1448 681,1458 758,1458 835,1458 903,1448 964,1428 1025,1407 1078,1380 1125,1345 1171,1310 1210,1268 1243,1221 1276,1173 1302,1122 1323,1067 1344,1012 1359,954 1368,895 1377,835 1382,776 1382,717 1382,658 1377,598 1368,539 1359,479 1344,422 1323,367 1302,312 1276,260 1243,213 1210,165 1171,124 1125,89 1078,54 1025,26 964,6 903,-15 835,-25 758,-25 Z M 758,180 C 808,180 853,188 892,204 931,219 966,240 996,267 1025,294 1051,325 1072,361 1093,396 1110,434 1123,474 1136,513 1146,554 1152,596 1158,637 1161,678 1161,717 1161,758 1158,801 1152,844 1146,887 1136,928 1123,968 1110,1007 1093,1044 1072,1079 1051,1114 1025,1144 996,1170 966,1195 931,1216 892,1231 853,1246 808,1253 758,1253 708,1253 663,1245 624,1230 585,1214 550,1193 520,1166 490,1139 465,1108 444,1073 423,1037 405,999 392,960 379,920 369,879 363,838 357,796 354,756 354,717 354,654 361,591 375,528 389,464 412,406 444,355 476,303 518,261 569,229 620,196 683,180 758,180 Z"
         id="glyph153" /><glyph
         unicode="H"
         horiz-adv-x="1060"
         d="M 1051,0 L 1051,639 397,639 397,0 184,0 184,1434 397,1434 397,840 1051,840 1051,1434 1264,1434 1264,0 1051,0 Z"
         id="glyph155" /><glyph
         unicode="E"
         horiz-adv-x="927"
         d="M 184,0 L 184,1434 1073,1434 1073,1233 397,1233 397,840 834,840 834,639 397,639 397,201 1118,201 1118,0 184,0 Z"
         id="glyph157" /><glyph
         unicode="D"
         horiz-adv-x="1086"
         d="M 184,1434 L 586,1434 C 669,1434 744,1425 810,1406 876,1387 934,1360 985,1327 1036,1294 1079,1254 1115,1209 1151,1163 1181,1114 1204,1061 1227,1008 1243,952 1254,893 1265,834 1270,776 1270,717 1270,662 1265,607 1256,550 1246,493 1230,438 1208,385 1185,332 1156,282 1121,235 1086,188 1042,148 991,113 940,78 880,50 812,30 743,10 665,0 578,0 L 184,0 184,1434 Z M 612,201 C 667,201 716,208 759,223 802,237 839,256 872,281 904,306 931,335 954,368 976,401 994,437 1009,476 1023,514 1033,554 1040,595 1046,636 1049,676 1049,717 1049,782 1041,845 1026,907 1010,968 985,1023 952,1072 919,1120 876,1159 824,1189 771,1218 708,1233 635,1233 L 397,1233 397,201 612,201 Z"
         id="glyph159" /><glyph
         unicode="C"
         horiz-adv-x="1086"
         d="M 729,-25 C 655,-25 589,-15 531,6 472,26 421,54 377,89 333,124 296,165 265,213 234,260 208,312 189,367 170,422 156,479 147,539 138,598 133,658 133,717 133,772 138,828 147,886 156,944 170,1001 190,1056 209,1111 235,1162 266,1211 297,1260 335,1302 379,1339 423,1376 474,1405 532,1426 590,1447 656,1458 729,1458 796,1458 857,1450 911,1434 965,1417 1012,1396 1053,1369 1093,1342 1127,1312 1154,1278 1181,1244 1202,1209 1217,1174 L 1022,1083 C 1005,1110 987,1135 968,1156 949,1177 928,1194 905,1209 882,1224 856,1235 827,1242 798,1249 766,1253 729,1253 681,1253 639,1245 602,1230 565,1215 532,1194 505,1167 477,1140 453,1109 434,1074 415,1039 399,1001 388,962 376,922 367,881 362,839 357,797 354,756 354,717 354,654 361,590 376,526 390,462 412,404 443,353 474,302 513,260 560,228 607,196 664,180 729,180 764,180 796,185 825,194 853,203 879,215 903,232 926,248 948,267 967,290 986,313 1003,338 1020,365 L 1219,289 C 1199,242 1174,200 1145,161 1115,122 1080,89 1040,62 999,35 953,13 902,-2 850,-17 792,-25 729,-25 Z"
         id="glyph161" /><glyph
         unicode="A"
         horiz-adv-x="1271"
         d="M 1118,0 L 1004,330 424,330 307,0 86,0 604,1434 823,1434 1339,0 1118,0 Z M 764,1006 C 756,1029 747,1055 738,1085 728,1115 720,1142 715,1167 708,1142 701,1115 692,1086 683,1056 674,1029 666,1006 L 489,518 938,518 764,1006 Z"
         id="glyph163" /><glyph
         unicode=" "
         horiz-adv-x="476"
         id="glyph165" /></font></defs><defs
     id="defs167"><font
       id="EmbeddedFont_5"
       horiz-adv-x="2048"
       horiz-origin-x="0"
       horiz-origin-y="0"
       vert-origin-x="45"
       vert-origin-y="90"
       vert-adv-y="90"><font-face
         font-family="StarSymbol embedded"
         units-per-em="2048"
         font-weight="normal"
         font-style="normal"
         ascent="1879"
         descent="635"
         id="font-face170" /><missing-glyph
         horiz-adv-x="2048"
         d="M 0,0 L 2047,0 2047,2047 0,2047 0,0 Z"
         id="missing-glyph172" /><glyph
         unicode="●"
         horiz-adv-x="1191"
         d="M 813,0 C 632,0 489,54 383,161 276,268 223,411 223,592 223,773 276,916 383,1023 489,1130 632,1184 813,1184 992,1184 1136,1130 1245,1023 1353,916 1407,772 1407,592 1407,412 1353,268 1245,161 1136,54 992,0 813,0 Z"
         id="glyph174" /><glyph
         unicode="–"
         horiz-adv-x="1165"
         d="M -4,459 L 1135,459 1135,606 -4,606 -4,459 Z"
         id="glyph176" /></font>
</defs>
</svg>
